<svg width="375" height="812" viewBox="0 0 375 812" fill="none" xmlns="http://www.w3.org/2000/svg">
<g clip-path="url(#clip0_32_45)">
<rect width="375" height="812" fill="#EAE8FE"/>
<path d="M0 208C0 191.431 13.4315 178 30 178H345C361.569 178 375 191.431 375 208V805H0V208Z" fill="white"/>
<path d="M1 284C1 267.431 14.4315 254 31 254H346C362.569 254 376 267.431 376 284V881H1V284Z" fill="white"/>
<rect x="13" y="665" width="348" height="63" rx="20" fill="#F9F9FC"/>
<path d="M90.02 673.61V680.51H91.265V673.61H90.02ZM90.725 676.52V677.555H93.26V676.52H90.725ZM82.655 681.155V682.145H90.05V683.54H82.685V686.51H83.915V684.485H91.265V681.155H82.655ZM82.685 685.985V686.99H91.76V685.985H82.685ZM84.485 674.09C82.475 674.09 80.99 675.335 80.99 677.105C80.99 678.89 82.475 680.135 84.485 680.135C86.525 680.135 87.995 678.89 87.995 677.105C87.995 675.335 86.525 674.09 84.485 674.09ZM84.485 675.11C85.82 675.11 86.795 675.935 86.795 677.105C86.795 678.29 85.82 679.115 84.485 679.115C83.18 679.115 82.205 678.29 82.205 677.105C82.205 675.935 83.18 675.11 84.485 675.11ZM95.0888 674.96V675.995H103.819V674.96H95.0888ZM93.7988 684.245V685.28H106.054V684.245H93.7988ZM98.5538 679.4V684.755H99.7988V679.4H98.5538ZM103.354 674.96V676.31C103.354 677.93 103.354 679.835 102.844 682.43L104.089 682.595C104.584 679.85 104.584 677.99 104.584 676.31V674.96H103.354ZM116.718 673.595V687.185H117.963V673.595H116.718ZM107.628 682.88V683.915H108.753C111.078 683.915 113.118 683.825 115.578 683.42L115.443 682.4C113.043 682.79 111.018 682.88 108.753 682.88H107.628ZM107.598 674.87V675.89H112.608V678.695H107.628V683.27H108.873V679.715H113.868V674.87H107.598ZM125.206 674.75V675.155C125.206 676.685 123.001 677.9 120.571 678.17L121.021 679.16C123.826 678.815 126.316 677.33 126.316 675.155V674.75H125.206ZM125.731 674.75V675.155C125.731 677.33 128.206 678.815 131.011 679.16L131.461 678.17C129.031 677.9 126.826 676.685 126.826 675.155V674.75H125.731ZM121.006 674.195V675.2H131.041V674.195H121.006ZM121.381 682.415V686.99H130.636V682.415H121.381ZM129.421 683.42V685.985H122.611V683.42H129.421ZM119.881 679.955V680.975H132.136V679.955H119.881Z" fill="black"/>
<path d="M90.22 701.96L85.2 714H81.7L86.78 702.34H80.56V699.42H90.22V701.96ZM100.883 702.38H94.6431V705.14C94.9098 704.847 95.2831 704.607 95.7631 704.42C96.2431 704.233 96.7631 704.14 97.3231 704.14C98.3231 704.14 99.1498 704.367 99.8031 704.82C100.47 705.273 100.956 705.86 101.263 706.58C101.57 707.3 101.723 708.08 101.723 708.92C101.723 710.48 101.283 711.72 100.403 712.64C99.5231 713.547 98.2831 714 96.6831 714C95.6165 714 94.6898 713.82 93.9031 713.46C93.1165 713.087 92.5098 712.573 92.0831 711.92C91.6565 711.267 91.4231 710.513 91.3831 709.66H94.7231C94.8031 710.073 94.9965 710.42 95.3031 710.7C95.6098 710.967 96.0298 711.1 96.5631 711.1C97.1898 711.1 97.6565 710.9 97.9631 710.5C98.2698 710.1 98.4231 709.567 98.4231 708.9C98.4231 708.247 98.2631 707.747 97.9431 707.4C97.6231 707.053 97.1565 706.88 96.5431 706.88C96.0898 706.88 95.7165 706.993 95.4231 707.22C95.1298 707.433 94.9365 707.72 94.8431 708.08H91.5431V699.38H100.883V702.38ZM102.611 706.5C102.611 704.207 103.051 702.4 103.931 701.08C104.824 699.76 106.258 699.1 108.231 699.1C110.204 699.1 111.631 699.76 112.511 701.08C113.404 702.4 113.851 704.207 113.851 706.5C113.851 708.82 113.404 710.64 112.511 711.96C111.631 713.28 110.204 713.94 108.231 713.94C106.258 713.94 104.824 713.28 103.931 711.96C103.051 710.64 102.611 708.82 102.611 706.5ZM110.491 706.5C110.491 705.153 110.344 704.12 110.051 703.4C109.758 702.667 109.151 702.3 108.231 702.3C107.311 702.3 106.704 702.667 106.411 703.4C106.118 704.12 105.971 705.153 105.971 706.5C105.971 707.407 106.024 708.16 106.131 708.76C106.238 709.347 106.451 709.827 106.771 710.2C107.104 710.56 107.591 710.74 108.231 710.74C108.871 710.74 109.351 710.56 109.671 710.2C110.004 709.827 110.224 709.347 110.331 708.76C110.438 708.16 110.491 707.407 110.491 706.5ZM114.658 706.5C114.658 704.207 115.098 702.4 115.978 701.08C116.871 699.76 118.304 699.1 120.278 699.1C122.251 699.1 123.678 699.76 124.558 701.08C125.451 702.4 125.898 704.207 125.898 706.5C125.898 708.82 125.451 710.64 124.558 711.96C123.678 713.28 122.251 713.94 120.278 713.94C118.304 713.94 116.871 713.28 115.978 711.96C115.098 710.64 114.658 708.82 114.658 706.5ZM122.538 706.5C122.538 705.153 122.391 704.12 122.098 703.4C121.804 702.667 121.198 702.3 120.278 702.3C119.358 702.3 118.751 702.667 118.458 703.4C118.164 704.12 118.018 705.153 118.018 706.5C118.018 707.407 118.071 708.16 118.178 708.76C118.284 709.347 118.498 709.827 118.818 710.2C119.151 710.56 119.638 710.74 120.278 710.74C120.918 710.74 121.398 710.56 121.718 710.2C122.051 709.827 122.271 709.347 122.378 708.76C122.484 708.16 122.538 707.407 122.538 706.5ZM132.125 714.14C131.098 714.14 130.178 713.973 129.365 713.64C128.551 713.307 127.898 712.813 127.405 712.16C126.925 711.507 126.671 710.72 126.645 709.8H130.285C130.338 710.32 130.518 710.72 130.825 711C131.131 711.267 131.531 711.4 132.025 711.4C132.531 711.4 132.931 711.287 133.225 711.06C133.518 710.82 133.665 710.493 133.665 710.08C133.665 709.733 133.545 709.447 133.305 709.22C133.078 708.993 132.791 708.807 132.445 708.66C132.111 708.513 131.631 708.347 131.005 708.16C130.098 707.88 129.358 707.6 128.785 707.32C128.211 707.04 127.718 706.627 127.305 706.08C126.891 705.533 126.685 704.82 126.685 703.94C126.685 702.633 127.158 701.613 128.105 700.88C129.051 700.133 130.285 699.76 131.805 699.76C133.351 699.76 134.598 700.133 135.545 700.88C136.491 701.613 136.998 702.64 137.065 703.96H133.365C133.338 703.507 133.171 703.153 132.865 702.9C132.558 702.633 132.165 702.5 131.685 702.5C131.271 702.5 130.938 702.613 130.685 702.84C130.431 703.053 130.305 703.367 130.305 703.78C130.305 704.233 130.518 704.587 130.945 704.84C131.371 705.093 132.038 705.367 132.945 705.66C133.851 705.967 134.585 706.26 135.145 706.54C135.718 706.82 136.211 707.227 136.625 707.76C137.038 708.293 137.245 708.98 137.245 709.82C137.245 710.62 137.038 711.347 136.625 712C136.225 712.653 135.638 713.173 134.865 713.56C134.091 713.947 133.178 714.14 132.125 714.14Z" fill="#6427FF"/>
<rect x="25" y="671" width="52" height="52" rx="26" fill="#EAE8FE"/>
<path d="M63 685H39C37.335 685 36 686.294 36 687.875V705.125C36 706.706 37.335 708 39 708H63C64.65 708 66 706.706 66 705.125V687.875C66 686.294 64.665 685 63 685ZM63 705.125H39V690.75H63V705.125ZM60 703.688H51V700.812H60V703.688ZM44.25 703.688L42.135 701.661L46.005 697.938L42.12 694.214L44.25 692.188L50.25 697.938L44.25 703.688Z" fill="#6427FF"/>
<rect x="15" y="435" width="348" height="63" rx="20" fill="#F9F9FC"/>
<path d="M89.23 446.1V447.12H92.86V446.1H89.23ZM89.11 448.92V449.94H92.77V448.92H89.11ZM92.65 443.61V451.74H93.895V443.61H92.65ZM88.405 444.63V445.17C88.405 447.735 86.38 449.73 82.915 450.735L83.425 451.74C87.325 450.57 89.74 448.125 89.74 444.63H88.405ZM83.62 444.63V445.65H89.26V444.63H83.62ZM89.485 451.89C86.74 451.89 85 452.865 85 454.5C85 456.135 86.74 457.11 89.485 457.11C92.23 457.11 93.97 456.135 93.97 454.5C93.97 452.865 92.23 451.89 89.485 451.89ZM89.485 452.865C91.48 452.865 92.755 453.48 92.755 454.5C92.755 455.52 91.48 456.12 89.485 456.12C87.505 456.12 86.23 455.52 86.23 454.5C86.23 453.48 87.505 452.865 89.485 452.865ZM106.104 443.61V457.17H107.304V443.61H106.104ZM101.169 448.47V449.505H103.764V448.47H101.169ZM103.389 443.925V456.48H104.559V443.925H103.389ZM98.5588 445.71V447.435C98.5588 449.925 97.5088 452.4 95.6188 453.54L96.3838 454.47C98.3788 453.21 99.5188 450.405 99.5188 447.435V445.71H98.5588ZM98.8138 445.71V447.435C98.8138 450.27 99.9088 452.94 101.889 454.14L102.654 453.225C100.794 452.145 99.7738 449.79 99.7738 447.435V445.71H98.8138ZM95.9938 445.185V446.22H102.189V445.185H95.9938ZM108.878 445.035V446.055H116.888V445.035H108.878ZM112.883 446.745C110.933 446.745 109.628 447.705 109.628 449.205C109.628 450.69 110.933 451.635 112.883 451.635C114.803 451.635 116.123 450.69 116.123 449.205C116.123 447.705 114.803 446.745 112.883 446.745ZM112.883 447.72C114.098 447.72 114.938 448.29 114.938 449.205C114.938 450.09 114.098 450.675 112.883 450.675C111.638 450.675 110.813 450.09 110.813 449.205C110.813 448.29 111.638 447.72 112.883 447.72ZM118.118 443.61V452.085H119.363V443.61H118.118ZM119.018 447.345V448.38H121.373V447.345H119.018ZM110.558 452.82V453.84H118.118V457.17H119.363V452.82H110.558ZM112.253 443.535V445.605H113.498V443.535H112.253ZM132.186 443.61V457.17H133.386V443.61H132.186ZM129.996 449.055V450.075H132.591V449.055H129.996ZM126.486 445.35V445.59C126.486 448.725 125.286 451.47 121.881 453.375L122.616 454.26C126.486 452.085 127.686 448.845 127.686 445.35H126.486ZM122.406 445.35V446.385H126.906V445.35H122.406ZM129.171 443.97V456.51H130.356V443.97H129.171ZM134.93 451.35V452.37H147.23V451.35H134.93ZM136.55 456.015V457.035H145.94V456.015H136.55ZM136.55 453.27V456.315H137.795V453.27H136.55ZM140.45 449.4V451.785H141.695V449.4H140.45ZM136.49 444.045V445.02H144.425V446.49H136.52V449.235H137.75V447.405H145.64V444.045H136.49ZM136.52 448.905V449.88H145.94V448.905H136.52Z" fill="black"/>
<path d="M82.54 472.58V469.4H88.08V484H84.52V472.58H82.54ZM99.6995 472.38H93.4595V475.14C93.7262 474.847 94.0995 474.607 94.5795 474.42C95.0595 474.233 95.5795 474.14 96.1395 474.14C97.1395 474.14 97.9662 474.367 98.6195 474.82C99.2862 475.273 99.7729 475.86 100.08 476.58C100.386 477.3 100.54 478.08 100.54 478.92C100.54 480.48 100.1 481.72 99.2195 482.64C98.3395 483.547 97.0995 484 95.4995 484C94.4329 484 93.5062 483.82 92.7195 483.46C91.9329 483.087 91.3262 482.573 90.8995 481.92C90.4729 481.267 90.2395 480.513 90.1995 479.66H93.5395C93.6195 480.073 93.8129 480.42 94.1195 480.7C94.4262 480.967 94.8462 481.1 95.3795 481.1C96.0062 481.1 96.4729 480.9 96.7795 480.5C97.0862 480.1 97.2395 479.567 97.2395 478.9C97.2395 478.247 97.0795 477.747 96.7595 477.4C96.4395 477.053 95.9729 476.88 95.3595 476.88C94.9062 476.88 94.5329 476.993 94.2395 477.22C93.9462 477.433 93.7529 477.72 93.6595 478.08H90.3595V469.38H99.6995V472.38ZM101.427 476.5C101.427 474.207 101.867 472.4 102.747 471.08C103.641 469.76 105.074 469.1 107.047 469.1C109.021 469.1 110.447 469.76 111.327 471.08C112.221 472.4 112.667 474.207 112.667 476.5C112.667 478.82 112.221 480.64 111.327 481.96C110.447 483.28 109.021 483.94 107.047 483.94C105.074 483.94 103.641 483.28 102.747 481.96C101.867 480.64 101.427 478.82 101.427 476.5ZM109.307 476.5C109.307 475.153 109.161 474.12 108.867 473.4C108.574 472.667 107.967 472.3 107.047 472.3C106.127 472.3 105.521 472.667 105.227 473.4C104.934 474.12 104.787 475.153 104.787 476.5C104.787 477.407 104.841 478.16 104.947 478.76C105.054 479.347 105.267 479.827 105.587 480.2C105.921 480.56 106.407 480.74 107.047 480.74C107.687 480.74 108.167 480.56 108.487 480.2C108.821 479.827 109.041 479.347 109.147 478.76C109.254 478.16 109.307 477.407 109.307 476.5ZM113.474 476.5C113.474 474.207 113.914 472.4 114.794 471.08C115.688 469.76 117.121 469.1 119.094 469.1C121.068 469.1 122.494 469.76 123.374 471.08C124.268 472.4 124.714 474.207 124.714 476.5C124.714 478.82 124.268 480.64 123.374 481.96C122.494 483.28 121.068 483.94 119.094 483.94C117.121 483.94 115.688 483.28 114.794 481.96C113.914 480.64 113.474 478.82 113.474 476.5ZM121.354 476.5C121.354 475.153 121.208 474.12 120.914 473.4C120.621 472.667 120.014 472.3 119.094 472.3C118.174 472.3 117.568 472.667 117.274 473.4C116.981 474.12 116.834 475.153 116.834 476.5C116.834 477.407 116.888 478.16 116.994 478.76C117.101 479.347 117.314 479.827 117.634 480.2C117.968 480.56 118.454 480.74 119.094 480.74C119.734 480.74 120.214 480.56 120.534 480.2C120.868 479.827 121.088 479.347 121.194 478.76C121.301 478.16 121.354 477.407 121.354 476.5ZM130.941 484.14C129.914 484.14 128.994 483.973 128.181 483.64C127.368 483.307 126.714 482.813 126.221 482.16C125.741 481.507 125.488 480.72 125.461 479.8H129.101C129.154 480.32 129.334 480.72 129.641 481C129.948 481.267 130.348 481.4 130.841 481.4C131.348 481.4 131.748 481.287 132.041 481.06C132.334 480.82 132.481 480.493 132.481 480.08C132.481 479.733 132.361 479.447 132.121 479.22C131.894 478.993 131.608 478.807 131.261 478.66C130.928 478.513 130.448 478.347 129.821 478.16C128.914 477.88 128.174 477.6 127.601 477.32C127.028 477.04 126.534 476.627 126.121 476.08C125.708 475.533 125.501 474.82 125.501 473.94C125.501 472.633 125.974 471.613 126.921 470.88C127.868 470.133 129.101 469.76 130.621 469.76C132.168 469.76 133.414 470.133 134.361 470.88C135.308 471.613 135.814 472.64 135.881 473.96H132.181C132.154 473.507 131.988 473.153 131.681 472.9C131.374 472.633 130.981 472.5 130.501 472.5C130.088 472.5 129.754 472.613 129.501 472.84C129.248 473.053 129.121 473.367 129.121 473.78C129.121 474.233 129.334 474.587 129.761 474.84C130.188 475.093 130.854 475.367 131.761 475.66C132.668 475.967 133.401 476.26 133.961 476.54C134.534 476.82 135.028 477.227 135.441 477.76C135.854 478.293 136.061 478.98 136.061 479.82C136.061 480.62 135.854 481.347 135.441 482C135.041 482.653 134.454 483.173 133.681 483.56C132.908 483.947 131.994 484.14 130.941 484.14Z" fill="#6427FF"/>
<path d="M89.695 324.805V325.84H93.115V324.805H89.695ZM86.14 322.435V324.1C86.14 326.17 84.775 328.09 82.765 328.84L83.41 329.83C85.675 328.915 87.145 326.725 87.145 324.1V322.435H86.14ZM86.38 322.435V324.145C86.38 326.56 87.835 328.66 89.995 329.5L90.67 328.54C88.705 327.82 87.385 326.035 87.385 324.145V322.435H86.38ZM92.65 321.625V331.765H93.895V321.625H92.65ZM85.18 333.85V334.87H94.225V333.85H85.18ZM85.18 330.64V334.33H86.425V330.64H85.18ZM103.419 324.865V325.885H106.179V324.865H103.419ZM103.404 327.505V328.525H106.164V327.505H103.404ZM95.8138 323.095V324.1H103.404V323.095H95.8138ZM99.6538 324.805C97.8388 324.805 96.5788 325.795 96.5788 327.31C96.5788 328.825 97.8388 329.83 99.6538 329.83C101.469 329.83 102.714 328.825 102.714 327.31C102.714 325.795 101.469 324.805 99.6538 324.805ZM99.6538 325.765C100.779 325.765 101.559 326.365 101.559 327.31C101.559 328.255 100.779 328.87 99.6538 328.87C98.5138 328.87 97.7488 328.255 97.7488 327.31C97.7488 326.365 98.5138 325.765 99.6538 325.765ZM99.0388 321.49V323.8H100.284V321.49H99.0388ZM105.699 321.61V330.37H106.944V321.61H105.699ZM102.504 330.505C99.6838 330.505 97.9888 331.36 97.9888 332.83C97.9888 334.3 99.6838 335.14 102.504 335.14C105.309 335.14 107.019 334.3 107.019 332.83C107.019 331.36 105.309 330.505 102.504 330.505ZM102.504 331.495C104.499 331.495 105.729 331.96 105.729 332.83C105.729 333.685 104.499 334.18 102.504 334.18C100.509 334.18 99.2788 333.685 99.2788 332.83C99.2788 331.96 100.509 331.495 102.504 331.495ZM119.153 321.61V335.17H120.353V321.61H119.153ZM116.858 327.04V328.075H119.468V327.04H116.858ZM116.078 321.91V334.48H117.248V321.91H116.078ZM109.328 330.79V331.825H110.213C112.253 331.825 113.618 331.765 115.238 331.42L115.118 330.385C113.543 330.715 112.193 330.79 110.213 330.79H109.328ZM109.328 323.26V331.255H110.558V324.28H114.368V323.26H109.328ZM127.371 322.09V322.84C127.371 324.775 124.986 326.395 122.511 326.77L123.006 327.775C125.826 327.295 128.466 325.435 128.466 322.84V322.09H127.371ZM127.596 322.09V322.84C127.596 325.405 130.251 327.295 133.041 327.775L133.536 326.77C131.091 326.395 128.676 324.73 128.676 322.84V322.09H127.596ZM127.371 330.01V335.17H128.601V330.01H127.371ZM121.896 329.245V330.28H134.151V329.245H121.896ZM134.975 323.035V324.055H142.985V323.035H134.975ZM138.98 324.745C137.03 324.745 135.725 325.705 135.725 327.205C135.725 328.69 137.03 329.635 138.98 329.635C140.9 329.635 142.22 328.69 142.22 327.205C142.22 325.705 140.9 324.745 138.98 324.745ZM138.98 325.72C140.195 325.72 141.035 326.29 141.035 327.205C141.035 328.09 140.195 328.675 138.98 328.675C137.735 328.675 136.91 328.09 136.91 327.205C136.91 326.29 137.735 325.72 138.98 325.72ZM144.215 321.61V330.085H145.46V321.61H144.215ZM145.115 325.345V326.38H147.47V325.345H145.115ZM136.655 330.82V331.84H144.215V335.17H145.46V330.82H136.655ZM138.35 321.535V323.605H139.595V321.535H138.35Z" fill="black"/>
<path d="M36.095 67.49C42.395 67.49 46.035 63.675 46.035 59.335C46.035 55.66 44.11 53.49 40.89 52.195L37.635 50.9C35.325 49.99 33.715 49.43 33.715 47.96C33.715 46.595 34.87 45.825 36.795 45.825C38.825 45.825 40.435 46.525 42.15 47.82L45.265 43.9C42.99 41.625 39.805 40.47 36.795 40.47C31.265 40.47 27.345 43.97 27.345 48.345C27.345 52.125 29.9 54.4 32.63 55.485L35.955 56.885C38.195 57.83 39.63 58.32 39.63 59.825C39.63 61.225 38.545 62.1 36.235 62.1C34.17 62.1 31.755 61.015 29.935 59.44L26.365 63.745C29.06 66.23 32.7 67.49 36.095 67.49ZM48.1235 67H54.3535V47.085H48.1235V67ZM51.2385 44.32C53.3035 44.32 54.7035 43.06 54.7035 41.1C54.7035 39.175 53.3035 37.915 51.2385 37.915C49.1385 37.915 47.7735 39.175 47.7735 41.1C47.7735 43.06 49.1385 44.32 51.2385 44.32ZM64.7586 75.365C71.6886 75.365 76.0636 72.39 76.0636 68.19C76.0636 64.585 73.2636 63.08 68.3636 63.08H65.2136C63.0786 63.08 62.2736 62.66 62.2736 61.75C62.2736 61.05 62.4836 60.77 62.9036 60.35C63.7786 60.595 64.5836 60.7 65.2486 60.7C69.6586 60.7 73.1936 58.67 73.1936 54.015C73.1936 53.07 72.9486 52.16 72.6686 51.6H75.7136V47.085H68.3986C67.4886 46.77 66.4036 46.595 65.2486 46.595C60.9436 46.595 56.9186 48.975 56.9186 53.805C56.9186 56.15 58.2136 58.005 59.6486 58.985V59.125C58.3186 60.035 57.4086 61.435 57.4086 62.835C57.4086 64.515 58.1786 65.565 59.2286 66.265V66.44C57.3736 67.385 56.4286 68.715 56.4286 70.36C56.4286 73.93 60.1736 75.365 64.7586 75.365ZM65.2486 56.955C63.8136 56.955 62.7286 55.905 62.7286 53.805C62.7286 51.81 63.8136 50.76 65.2486 50.76C66.7186 50.76 67.8036 51.81 67.8036 53.805C67.8036 55.905 66.7186 56.955 65.2486 56.955ZM65.7386 71.48C63.2186 71.48 61.5386 70.78 61.5386 69.38C61.5386 68.715 61.8186 68.155 62.4486 67.595C63.0786 67.77 63.8486 67.84 65.2836 67.84H67.1736C69.0286 67.84 70.0786 68.085 70.0786 69.275C70.0786 70.535 68.2936 71.48 65.7386 71.48ZM77.436 67H83.666V53.7C84.821 52.475 85.906 51.915 86.816 51.915C88.391 51.915 89.126 52.685 89.126 55.45V67H95.356V53.7C96.546 52.475 97.631 51.915 98.541 51.915C100.116 51.915 100.816 52.685 100.816 55.45V67H107.046V54.68C107.046 49.71 105.156 46.595 100.816 46.595C98.156 46.595 96.301 48.135 94.586 49.885C93.571 47.75 91.891 46.595 89.126 46.595C86.431 46.595 84.716 47.96 83.071 49.605H82.966L82.511 47.085H77.436V67ZM115.213 67.49C117.418 67.49 119.273 66.475 120.918 65.005H121.093L121.513 67H126.588V55.695C126.588 49.465 123.683 46.595 118.538 46.595C115.423 46.595 112.588 47.645 109.963 49.22L112.133 53.315C114.128 52.195 115.773 51.565 117.348 51.565C119.378 51.565 120.218 52.51 120.358 54.12C112.588 54.96 109.298 57.235 109.298 61.435C109.298 64.76 111.538 67.49 115.213 67.49ZM117.348 62.66C116.053 62.66 115.213 62.1 115.213 60.945C115.213 59.545 116.473 58.39 120.358 57.9V61.085C119.448 62.065 118.608 62.66 117.348 62.66Z" fill="black"/>
<path d="M322.331 60.2526C322.823 60.7445 323.446 61.0069 324.135 61.0069H342.208C342.897 61.0069 343.52 60.7445 344.012 60.2526C345.028 59.2358 344.996 57.5628 343.913 56.579L343.093 55.8574C342.568 55.3655 342.273 54.7093 342.273 53.9877V49.9861C342.273 45.722 338.993 40.6709 333.417 40.6709H332.925C327.349 40.6709 324.069 45.6893 324.069 49.9861V53.9877C324.069 54.7093 323.774 55.398 323.249 55.8574L322.429 56.579C321.347 57.5628 321.314 59.2355 322.331 60.2526H322.331Z" fill="black"/>
<path d="M333.155 65.927C335.057 65.927 336.599 64.3854 336.599 62.4829H329.711C329.711 64.3853 331.253 65.927 333.155 65.927H333.155Z" fill="black"/>
<rect x="25" y="104" width="264" height="50" rx="10" fill="white"/>
<path d="M81.56 135.105C80.86 135.105 80.23 134.985 79.67 134.745C79.11 134.495 78.67 134.145 78.35 133.695C78.03 133.245 77.87 132.72 77.87 132.12H79.7C79.74 132.57 79.915 132.94 80.225 133.23C80.545 133.52 80.99 133.665 81.56 133.665C82.15 133.665 82.61 133.525 82.94 133.245C83.27 132.955 83.435 132.585 83.435 132.135C83.435 131.785 83.33 131.5 83.12 131.28C82.92 131.06 82.665 130.89 82.355 130.77C82.055 130.65 81.635 130.52 81.095 130.38C80.415 130.2 79.86 130.02 79.43 129.84C79.01 129.65 78.65 129.36 78.35 128.97C78.05 128.58 77.9 128.06 77.9 127.41C77.9 126.81 78.05 126.285 78.35 125.835C78.65 125.385 79.07 125.04 79.61 124.8C80.15 124.56 80.775 124.44 81.485 124.44C82.495 124.44 83.32 124.695 83.96 125.205C84.61 125.705 84.97 126.395 85.04 127.275H83.15C83.12 126.895 82.94 126.57 82.61 126.3C82.28 126.03 81.845 125.895 81.305 125.895C80.815 125.895 80.415 126.02 80.105 126.27C79.795 126.52 79.64 126.88 79.64 127.35C79.64 127.67 79.735 127.935 79.925 128.145C80.125 128.345 80.375 128.505 80.675 128.625C80.975 128.745 81.385 128.875 81.905 129.015C82.595 129.205 83.155 129.395 83.585 129.585C84.025 129.775 84.395 130.07 84.695 130.47C85.005 130.86 85.16 131.385 85.16 132.045C85.16 132.575 85.015 133.075 84.725 133.545C84.445 134.015 84.03 134.395 83.48 134.685C82.94 134.965 82.3 135.105 81.56 135.105ZM94.0027 130.665C94.0027 130.975 93.9827 131.255 93.9427 131.505H87.6277C87.6777 132.165 87.9227 132.695 88.3627 133.095C88.8027 133.495 89.3427 133.695 89.9827 133.695C90.9027 133.695 91.5527 133.31 91.9327 132.54H93.7777C93.5277 133.3 93.0727 133.925 92.4127 134.415C91.7627 134.895 90.9527 135.135 89.9827 135.135C89.1927 135.135 88.4827 134.96 87.8527 134.61C87.2327 134.25 86.7427 133.75 86.3827 133.11C86.0327 132.46 85.8577 131.71 85.8577 130.86C85.8577 130.01 86.0277 129.265 86.3677 128.625C86.7177 127.975 87.2027 127.475 87.8227 127.125C88.4527 126.775 89.1727 126.6 89.9827 126.6C90.7627 126.6 91.4577 126.77 92.0677 127.11C92.6777 127.45 93.1527 127.93 93.4927 128.55C93.8327 129.16 94.0027 129.865 94.0027 130.665ZM92.2177 130.125C92.2077 129.495 91.9827 128.99 91.5427 128.61C91.1027 128.23 90.5577 128.04 89.9077 128.04C89.3177 128.04 88.8127 128.23 88.3927 128.61C87.9727 128.98 87.7227 129.485 87.6427 130.125H92.2177ZM94.3655 130.83C94.3655 130 94.5355 129.265 94.8755 128.625C95.2255 127.985 95.6955 127.49 96.2855 127.14C96.8855 126.78 97.5455 126.6 98.2655 126.6C98.9155 126.6 99.4805 126.73 99.9605 126.99C100.451 127.24 100.841 127.555 101.131 127.935V126.735H102.856V135H101.131V133.77C100.841 134.16 100.446 134.485 99.9455 134.745C99.4455 135.005 98.8755 135.135 98.2355 135.135C97.5255 135.135 96.8755 134.955 96.2855 134.595C95.6955 134.225 95.2255 133.715 94.8755 133.065C94.5355 132.405 94.3655 131.66 94.3655 130.83ZM101.131 130.86C101.131 130.29 101.011 129.795 100.771 129.375C100.541 128.955 100.236 128.635 99.8555 128.415C99.4755 128.195 99.0655 128.085 98.6255 128.085C98.1855 128.085 97.7755 128.195 97.3955 128.415C97.0155 128.625 96.7055 128.94 96.4655 129.36C96.2355 129.77 96.1205 130.26 96.1205 130.83C96.1205 131.4 96.2355 131.9 96.4655 132.33C96.7055 132.76 97.0155 133.09 97.3955 133.32C97.7855 133.54 98.1955 133.65 98.6255 133.65C99.0655 133.65 99.4755 133.54 99.8555 133.32C100.236 133.1 100.541 132.78 100.771 132.36C101.011 131.93 101.131 131.43 101.131 130.86ZM106.062 127.935C106.312 127.515 106.642 127.19 107.052 126.96C107.472 126.72 107.967 126.6 108.537 126.6V128.37H108.102C107.432 128.37 106.922 128.54 106.572 128.88C106.232 129.22 106.062 129.81 106.062 130.65V135H104.352V126.735H106.062V127.935ZM108.788 130.86C108.788 130.01 108.958 129.265 109.298 128.625C109.648 127.975 110.128 127.475 110.738 127.125C111.348 126.775 112.048 126.6 112.838 126.6C113.838 126.6 114.663 126.84 115.313 127.32C115.973 127.79 116.418 128.465 116.648 129.345H114.803C114.653 128.935 114.413 128.615 114.083 128.385C113.753 128.155 113.338 128.04 112.838 128.04C112.138 128.04 111.578 128.29 111.158 128.79C110.748 129.28 110.543 129.97 110.543 130.86C110.543 131.75 110.748 132.445 111.158 132.945C111.578 133.445 112.138 133.695 112.838 133.695C113.828 133.695 114.483 133.26 114.803 132.39H116.648C116.408 133.23 115.958 133.9 115.298 134.4C114.638 134.89 113.818 135.135 112.838 135.135C112.048 135.135 111.348 134.96 110.738 134.61C110.128 134.25 109.648 133.75 109.298 133.11C108.958 132.46 108.788 131.71 108.788 130.86ZM121.878 126.6C122.508 126.6 123.068 126.735 123.558 127.005C124.058 127.275 124.448 127.675 124.728 128.205C125.018 128.735 125.163 129.375 125.163 130.125V135H123.468V130.38C123.468 129.64 123.283 129.075 122.913 128.685C122.543 128.285 122.038 128.085 121.398 128.085C120.758 128.085 120.248 128.285 119.868 128.685C119.498 129.075 119.313 129.64 119.313 130.38V135H117.603V123.9H119.313V127.695C119.603 127.345 119.968 127.075 120.408 126.885C120.858 126.695 121.348 126.6 121.878 126.6Z" fill="#CBC6FF"/>
<g clip-path="url(#clip1_32_45)">
<path d="M55.3566 121.289C52.3056 118.237 47.3398 118.237 44.2888 121.289C41.2384 124.34 41.2384 129.305 44.2888 132.357C47.0058 135.073 51.2374 135.364 54.2865 133.243C54.3506 133.547 54.4975 133.837 54.7336 134.073L59.1768 138.516C59.8243 139.162 60.8707 139.162 61.5149 138.516C62.1617 137.869 62.1617 136.823 61.5149 136.178L57.0716 131.733C56.8368 131.499 56.5465 131.352 56.2429 131.288C58.3653 128.238 58.0743 124.007 55.3566 121.289ZM53.9538 130.954C51.6759 133.232 47.9688 133.232 45.6916 130.954C43.4151 128.676 43.4151 124.97 45.6916 122.692C47.9688 120.415 51.6759 120.415 53.9538 122.692C56.2316 124.97 56.2316 128.676 53.9538 130.954Z" fill="#CBC6FF"/>
</g>
<path d="M32.56 226.32V227.58C32.56 230.42 30.3 232.78 25.88 233.98L26.92 236.04C32.34 234.56 35.34 231.2 35.34 226.32H32.56ZM26.9 226.32V228.42H34.4V226.32H26.9ZM38.64 225.26V235.62H41.3V225.26H38.64ZM35.44 229.64V231.8H39.02V229.64H35.44ZM29.1 236.36V243.58H41.3V236.36H29.1ZM38.68 238.46V241.48H31.72V238.46H38.68ZM46.5384 226.32V228.44C46.5384 230.54 45.5184 232.84 42.9384 233.98L44.3384 236.04C47.3584 234.74 48.6184 231.6 48.6184 228.44V226.32H46.5384ZM47.0184 226.32V228.44C47.0184 231.52 48.2384 234.36 51.1184 235.54L52.5184 233.52C50.0784 232.5 49.0984 230.5 49.0984 228.44V226.32H47.0184ZM56.4584 225.28V236.5H58.9784V225.28H56.4584ZM54.2384 229.76V231.92H57.1784V229.76H54.2384ZM52.5384 225.56V236.4H55.0184V225.56H52.5384ZM46.2584 237.3V239.42H56.3384V243.78H58.9784V237.3H46.2584ZM77.2025 225.26V234.56H79.8625V225.26H77.2025ZM71.0225 225.96V227.4C71.0225 229.88 69.2225 231.92 64.5825 232.84L65.4625 234.98C71.0825 233.76 73.9225 230.88 73.9225 225.96H71.0225ZM65.6425 225.96V228.08H72.1425V225.96H65.6425ZM73.2025 227.56V229.58H77.5425V227.56H73.2025ZM73.0825 231.16V233.16H77.4425V231.16H73.0825ZM67.6225 235.24V237.32H77.2025V238.38H67.6625V242.64H70.3225V240.34H79.8625V235.24H67.6225ZM67.6625 241.52V243.6H80.2425V241.52H67.6625ZM82.5409 227.1V229.2H90.5209V227.1H82.5409ZM84.9209 232.4V238.68H87.5409V232.4H84.9209ZM89.4609 227.1V228.6C89.4609 230.38 89.4609 232.52 88.9809 235.48L91.5809 235.72C92.0809 232.64 92.0809 230.4 92.0809 228.6V227.1H89.4609ZM93.6609 225.26V243.78H96.3209V225.26H93.6609ZM95.5409 232.7V234.9H98.8009V232.7H95.5409ZM81.8409 240.04C85.0609 240.04 89.2209 239.96 92.9609 239.32L92.8209 237.38C89.1809 237.84 84.8609 237.9 81.6009 237.9L81.8409 240.04Z" fill="black"/>
<rect x="15" y="283" width="348" height="63" rx="20" fill="#F9F9FC"/>
<rect x="15" y="283" width="348" height="63" rx="20" fill="#F9F9FC"/>
<rect x="300" y="104" width="50" height="50" rx="10" fill="white"/>
<path d="M315 134.556V136.778H321.667V134.556H315ZM315 121.222V123.444H326.111V121.222H315ZM326.111 139V136.778H335V134.556H326.111V132.333H323.889V139H326.111ZM319.444 125.667V127.889H315V130.111H319.444V132.333H321.667V125.667H319.444ZM335 130.111V127.889H323.889V130.111H335ZM328.333 125.667H330.556V123.444H335V121.222H330.556V119H328.333V125.667Z" fill="#EAE8FE"/>
<rect y="731" width="375" height="81" fill="white"/>
<path d="M329.5 749C329.255 752.304 326.75 755 324 755C321.25 755 318.741 752.305 318.5 749C318.25 745.562 320.687 743 324 743C327.312 743 329.75 745.625 329.5 749Z" fill="#DAD7E0" stroke="#DAD7E0" stroke-width="3" stroke-linecap="round" stroke-linejoin="round"/>
<path d="M324 759C318.563 759 313.044 762 312.023 767.663C311.899 768.345 312.286 769 313 769H335C335.715 769 336.101 768.345 335.978 767.663C334.956 762 329.438 759 324 759Z" fill="#D9D9D9" stroke="#DAD7E0" stroke-width="3" stroke-miterlimit="10"/>
<path d="M51 742.667C50.8237 742.667 50.6491 742.702 50.4864 742.77C50.3237 742.838 50.1761 742.937 50.0521 743.063L36.6042 754.797C36.5202 754.859 36.4519 754.94 36.4049 755.033C36.3578 755.126 36.3333 755.229 36.3333 755.333C36.3333 755.51 36.4036 755.68 36.5286 755.805C36.6536 755.93 36.8232 756 37 756H40.3333V766.667C40.3333 767.403 40.9307 768 41.6667 768H47C47.736 768 48.3333 767.403 48.3333 766.667V758.667H53.6667V766.667C53.6667 767.403 54.264 768 55 768H60.3333C61.0693 768 61.6667 767.403 61.6667 766.667V756H65C65.1768 756 65.3464 755.93 65.4714 755.805C65.5964 755.68 65.6667 755.51 65.6667 755.333C65.6667 755.229 65.6422 755.126 65.5951 755.033C65.5481 754.94 65.4798 754.859 65.3958 754.797L51.9557 743.07C51.9531 743.068 51.9505 743.065 51.9479 743.063C51.8239 742.937 51.6763 742.838 51.5136 742.77C51.3509 742.702 51.1763 742.667 51 742.667Z" fill="#DAD7E0"/>
<path d="M101.333 748H98.6667V766.667C98.6667 768.133 99.8667 769.333 101.333 769.333H120V766.667H101.333V748Z" fill="#6427FF"/>
<path d="M122.667 742.667H106.667C105.2 742.667 104 743.867 104 745.333V761.333C104 762.8 105.2 764 106.667 764H122.667C124.133 764 125.333 762.8 125.333 761.333V745.333C125.333 743.867 124.133 742.667 122.667 742.667ZM114.68 760C113.893 760 113.28 759.373 113.28 758.6C113.28 757.813 113.907 757.213 114.68 757.213C115.467 757.213 116.067 757.813 116.067 758.6C116.053 759.373 115.467 760 114.68 760ZM118.013 751.773C117.173 753.013 116.373 753.387 115.933 754.187C115.76 754.507 115.693 754.72 115.693 755.76H113.667C113.667 755.213 113.587 754.32 114.013 753.56C114.56 752.587 115.587 752.013 116.187 751.16C116.827 750.253 116.467 748.573 114.667 748.573C113.493 748.573 112.907 749.467 112.667 750.213L110.84 749.453C111.347 747.947 112.693 746.667 114.653 746.667C116.293 746.667 117.427 747.413 118 748.347C118.493 749.16 118.773 750.653 118.013 751.773Z" fill="#6427FF"/>
<path d="M269.667 759H263V765.667H269.667V759ZM268.333 744.333V747H257.667V744.333H255V747H253.667C252.187 747 251.013 748.2 251.013 749.667L251 768.333C251 769.8 252.187 771 253.667 771H272.333C273.8 771 275 769.8 275 768.333V749.667C275 748.2 273.8 747 272.333 747H271V744.333H268.333ZM272.333 768.333H253.667V753.667H272.333V768.333Z" fill="#DAD7E0"/>
<circle cx="187" cy="719" r="30" fill="#6427FF"/>
<path d="M175 709.667V715H177.667V709.667H183V707H177.667C176.2 707 175 708.2 175 709.667ZM177.667 723H175V728.333C175 729.8 176.2 731 177.667 731H183V728.333H177.667V723ZM196.333 728.333H191V731H196.333C197.8 731 199 729.8 199 728.333V723H196.333V728.333ZM196.333 707H191V709.667H196.333V715H199V709.667C199 708.2 197.8 707 196.333 707Z" fill="white"/>
<rect x="25" y="288" width="52" height="52" rx="26" fill="#EAE8FE"/>
<path d="M61 300H40C38.35 300 37 301.4 37 303.111V324.889C37 326.6 38.35 328 40 328H61C62.65 328 64 326.6 64 324.889V303.111C64 301.4 62.65 300 61 300ZM52.045 306.316L53.635 304.667L55.75 306.86L57.865 304.667L59.455 306.316L57.34 308.509L59.455 310.702L57.865 312.351L55.75 310.173L53.635 312.367L52.045 310.718L54.16 308.524L52.045 306.316ZM41.875 307.342H49.375V309.676H41.875V307.342ZM49.75 320.222H46.75V323.333H44.5V320.222H41.5V317.889H44.5V314.778H46.75V317.889H49.75V320.222ZM59.5 322.167H52V319.833H59.5V322.167ZM59.5 318.278H52V315.944H59.5V318.278Z" fill="#6427FF"/>
<path d="M89.695 294.805V295.84H93.115V294.805H89.695ZM86.14 292.435V294.1C86.14 296.17 84.775 298.09 82.765 298.84L83.41 299.83C85.675 298.915 87.145 296.725 87.145 294.1V292.435H86.14ZM86.38 292.435V294.145C86.38 296.56 87.835 298.66 89.995 299.5L90.67 298.54C88.705 297.82 87.385 296.035 87.385 294.145V292.435H86.38ZM92.65 291.625V301.765H93.895V291.625H92.65ZM85.18 303.85V304.87H94.225V303.85H85.18ZM85.18 300.64V304.33H86.425V300.64H85.18ZM103.419 294.865V295.885H106.179V294.865H103.419ZM103.404 297.505V298.525H106.164V297.505H103.404ZM95.8138 293.095V294.1H103.404V293.095H95.8138ZM99.6538 294.805C97.8388 294.805 96.5788 295.795 96.5788 297.31C96.5788 298.825 97.8388 299.83 99.6538 299.83C101.469 299.83 102.714 298.825 102.714 297.31C102.714 295.795 101.469 294.805 99.6538 294.805ZM99.6538 295.765C100.779 295.765 101.559 296.365 101.559 297.31C101.559 298.255 100.779 298.87 99.6538 298.87C98.5138 298.87 97.7488 298.255 97.7488 297.31C97.7488 296.365 98.5138 295.765 99.6538 295.765ZM99.0388 291.49V293.8H100.284V291.49H99.0388ZM105.699 291.61V300.37H106.944V291.61H105.699ZM102.504 300.505C99.6838 300.505 97.9888 301.36 97.9888 302.83C97.9888 304.3 99.6838 305.14 102.504 305.14C105.309 305.14 107.019 304.3 107.019 302.83C107.019 301.36 105.309 300.505 102.504 300.505ZM102.504 301.495C104.499 301.495 105.729 301.96 105.729 302.83C105.729 303.685 104.499 304.18 102.504 304.18C100.509 304.18 99.2788 303.685 99.2788 302.83C99.2788 301.96 100.509 301.495 102.504 301.495ZM119.153 291.61V305.17H120.353V291.61H119.153ZM116.858 297.04V298.075H119.468V297.04H116.858ZM116.078 291.91V304.48H117.248V291.91H116.078ZM109.328 300.79V301.825H110.213C112.253 301.825 113.618 301.765 115.238 301.42L115.118 300.385C113.543 300.715 112.193 300.79 110.213 300.79H109.328ZM109.328 293.26V301.255H110.558V294.28H114.368V293.26H109.328ZM127.371 292.09V292.84C127.371 294.775 124.986 296.395 122.511 296.77L123.006 297.775C125.826 297.295 128.466 295.435 128.466 292.84V292.09H127.371ZM127.596 292.09V292.84C127.596 295.405 130.251 297.295 133.041 297.775L133.536 296.77C131.091 296.395 128.676 294.73 128.676 292.84V292.09H127.596ZM127.371 300.01V305.17H128.601V300.01H127.371ZM121.896 299.245V300.28H134.151V299.245H121.896ZM134.975 293.035V294.055H142.985V293.035H134.975ZM138.98 294.745C137.03 294.745 135.725 295.705 135.725 297.205C135.725 298.69 137.03 299.635 138.98 299.635C140.9 299.635 142.22 298.69 142.22 297.205C142.22 295.705 140.9 294.745 138.98 294.745ZM138.98 295.72C140.195 295.72 141.035 296.29 141.035 297.205C141.035 298.09 140.195 298.675 138.98 298.675C137.735 298.675 136.91 298.09 136.91 297.205C136.91 296.29 137.735 295.72 138.98 295.72ZM144.215 291.61V300.085H145.46V291.61H144.215ZM145.115 295.345V296.38H147.47V295.345H145.115ZM136.655 300.82V301.84H144.215V305.17H145.46V300.82H136.655ZM138.35 291.535V293.605H139.595V291.535H138.35Z" fill="black"/>
<path d="M82.54 320.58V317.4H88.08V332H84.52V320.58H82.54ZM99.6995 320.38H93.4595V323.14C93.7262 322.847 94.0995 322.607 94.5795 322.42C95.0595 322.233 95.5795 322.14 96.1395 322.14C97.1395 322.14 97.9662 322.367 98.6195 322.82C99.2862 323.273 99.7729 323.86 100.08 324.58C100.386 325.3 100.54 326.08 100.54 326.92C100.54 328.48 100.1 329.72 99.2195 330.64C98.3395 331.547 97.0995 332 95.4995 332C94.4329 332 93.5062 331.82 92.7195 331.46C91.9329 331.087 91.3262 330.573 90.8995 329.92C90.4729 329.267 90.2395 328.513 90.1995 327.66H93.5395C93.6195 328.073 93.8129 328.42 94.1195 328.7C94.4262 328.967 94.8462 329.1 95.3795 329.1C96.0062 329.1 96.4729 328.9 96.7795 328.5C97.0862 328.1 97.2395 327.567 97.2395 326.9C97.2395 326.247 97.0795 325.747 96.7595 325.4C96.4395 325.053 95.9729 324.88 95.3595 324.88C94.9062 324.88 94.5329 324.993 94.2395 325.22C93.9462 325.433 93.7529 325.72 93.6595 326.08H90.3595V317.38H99.6995V320.38ZM101.427 324.5C101.427 322.207 101.867 320.4 102.747 319.08C103.641 317.76 105.074 317.1 107.047 317.1C109.021 317.1 110.447 317.76 111.327 319.08C112.221 320.4 112.667 322.207 112.667 324.5C112.667 326.82 112.221 328.64 111.327 329.96C110.447 331.28 109.021 331.94 107.047 331.94C105.074 331.94 103.641 331.28 102.747 329.96C101.867 328.64 101.427 326.82 101.427 324.5ZM109.307 324.5C109.307 323.153 109.161 322.12 108.867 321.4C108.574 320.667 107.967 320.3 107.047 320.3C106.127 320.3 105.521 320.667 105.227 321.4C104.934 322.12 104.787 323.153 104.787 324.5C104.787 325.407 104.841 326.16 104.947 326.76C105.054 327.347 105.267 327.827 105.587 328.2C105.921 328.56 106.407 328.74 107.047 328.74C107.687 328.74 108.167 328.56 108.487 328.2C108.821 327.827 109.041 327.347 109.147 326.76C109.254 326.16 109.307 325.407 109.307 324.5ZM113.474 324.5C113.474 322.207 113.914 320.4 114.794 319.08C115.688 317.76 117.121 317.1 119.094 317.1C121.068 317.1 122.494 317.76 123.374 319.08C124.268 320.4 124.714 322.207 124.714 324.5C124.714 326.82 124.268 328.64 123.374 329.96C122.494 331.28 121.068 331.94 119.094 331.94C117.121 331.94 115.688 331.28 114.794 329.96C113.914 328.64 113.474 326.82 113.474 324.5ZM121.354 324.5C121.354 323.153 121.208 322.12 120.914 321.4C120.621 320.667 120.014 320.3 119.094 320.3C118.174 320.3 117.568 320.667 117.274 321.4C116.981 322.12 116.834 323.153 116.834 324.5C116.834 325.407 116.888 326.16 116.994 326.76C117.101 327.347 117.314 327.827 117.634 328.2C117.968 328.56 118.454 328.74 119.094 328.74C119.734 328.74 120.214 328.56 120.534 328.2C120.868 327.827 121.088 327.347 121.194 326.76C121.301 326.16 121.354 325.407 121.354 324.5ZM130.941 332.14C129.914 332.14 128.994 331.973 128.181 331.64C127.368 331.307 126.714 330.813 126.221 330.16C125.741 329.507 125.488 328.72 125.461 327.8H129.101C129.154 328.32 129.334 328.72 129.641 329C129.948 329.267 130.348 329.4 130.841 329.4C131.348 329.4 131.748 329.287 132.041 329.06C132.334 328.82 132.481 328.493 132.481 328.08C132.481 327.733 132.361 327.447 132.121 327.22C131.894 326.993 131.608 326.807 131.261 326.66C130.928 326.513 130.448 326.347 129.821 326.16C128.914 325.88 128.174 325.6 127.601 325.32C127.028 325.04 126.534 324.627 126.121 324.08C125.708 323.533 125.501 322.82 125.501 321.94C125.501 320.633 125.974 319.613 126.921 318.88C127.868 318.133 129.101 317.76 130.621 317.76C132.168 317.76 133.414 318.133 134.361 318.88C135.308 319.613 135.814 320.64 135.881 321.96H132.181C132.154 321.507 131.988 321.153 131.681 320.9C131.374 320.633 130.981 320.5 130.501 320.5C130.088 320.5 129.754 320.613 129.501 320.84C129.248 321.053 129.121 321.367 129.121 321.78C129.121 322.233 129.334 322.587 129.761 322.84C130.188 323.093 130.854 323.367 131.761 323.66C132.668 323.967 133.401 324.26 133.961 324.54C134.534 324.82 135.028 325.227 135.441 325.76C135.854 326.293 136.061 326.98 136.061 327.82C136.061 328.62 135.854 329.347 135.441 330C135.041 330.653 134.454 331.173 133.681 331.56C132.908 331.947 131.994 332.14 130.941 332.14Z" fill="#6427FF"/>
<rect x="15" y="359" width="348" height="63" rx="20" fill="#F9F9FC"/>
<rect x="25" y="364" width="52" height="52" rx="26" fill="#EAE8FE"/>
<path d="M61 376H40C38.35 376 37 377.4 37 379.111V400.889C37 402.6 38.35 404 40 404H61C62.65 404 64 402.6 64 400.889V379.111C64 377.4 62.65 376 61 376ZM52.045 382.316L53.635 380.667L55.75 382.86L57.865 380.667L59.455 382.316L57.34 384.509L59.455 386.702L57.865 388.351L55.75 386.173L53.635 388.367L52.045 386.718L54.16 384.524L52.045 382.316ZM41.875 383.342H49.375V385.676H41.875V383.342ZM49.75 396.222H46.75V399.333H44.5V396.222H41.5V393.889H44.5V390.778H46.75V393.889H49.75V396.222ZM59.5 398.167H52V395.833H59.5V398.167ZM59.5 394.278H52V391.944H59.5V394.278Z" fill="#6427FF"/>
<path d="M88.225 368.09V368.84C88.225 370.775 85.84 372.395 83.365 372.77L83.86 373.775C86.68 373.295 89.32 371.435 89.32 368.84V368.09H88.225ZM88.45 368.09V368.84C88.45 371.405 91.105 373.295 93.895 373.775L94.39 372.77C91.945 372.395 89.53 370.73 89.53 368.84V368.09H88.45ZM88.225 376.01V381.17H89.455V376.01H88.225ZM82.75 375.245V376.28H95.005V375.245H82.75ZM95.8288 369.035V370.055H103.839V369.035H95.8288ZM99.8338 370.745C97.8838 370.745 96.5788 371.705 96.5788 373.205C96.5788 374.69 97.8838 375.635 99.8338 375.635C101.754 375.635 103.074 374.69 103.074 373.205C103.074 371.705 101.754 370.745 99.8338 370.745ZM99.8338 371.72C101.049 371.72 101.889 372.29 101.889 373.205C101.889 374.09 101.049 374.675 99.8338 374.675C98.5888 374.675 97.7638 374.09 97.7638 373.205C97.7638 372.29 98.5888 371.72 99.8338 371.72ZM105.069 367.61V376.085H106.314V367.61H105.069ZM105.969 371.345V372.38H108.324V371.345H105.969ZM97.5088 376.82V377.84H105.069V381.17H106.314V376.82H97.5088ZM99.2038 367.535V369.605H100.449V367.535H99.2038ZM108.863 378.905C110.133 377.885 111.128 377.05 111.848 376.4C112.568 375.74 113.173 375.055 113.663 374.345C114.163 373.625 114.413 372.92 114.413 372.23C114.413 371.58 114.253 371.07 113.933 370.7C113.623 370.32 113.118 370.13 112.418 370.13C111.738 370.13 111.208 370.345 110.828 370.775C110.458 371.195 110.258 371.76 110.228 372.47H108.908C108.948 371.35 109.288 370.485 109.928 369.875C110.568 369.265 111.393 368.96 112.403 368.96C113.433 368.96 114.248 369.245 114.848 369.815C115.458 370.385 115.763 371.17 115.763 372.17C115.763 373 115.513 373.81 115.013 374.6C114.523 375.38 113.963 376.07 113.333 376.67C112.703 377.26 111.898 377.95 110.918 378.74H116.078V379.88H108.863V378.905Z" fill="black"/>
<path d="M83.02 397.52C83.0733 396.093 83.54 394.993 84.42 394.22C85.3 393.447 86.4933 393.06 88 393.06C89 393.06 89.8533 393.233 90.56 393.58C91.28 393.927 91.82 394.4 92.18 395C92.5533 395.6 92.74 396.273 92.74 397.02C92.74 397.9 92.52 398.62 92.08 399.18C91.64 399.727 91.1267 400.1 90.54 400.3V400.38C91.3 400.633 91.9 401.053 92.34 401.64C92.78 402.227 93 402.98 93 403.9C93 404.727 92.8067 405.46 92.42 406.1C92.0467 406.727 91.4933 407.22 90.76 407.58C90.04 407.94 89.18 408.12 88.18 408.12C86.58 408.12 85.3 407.727 84.34 406.94C83.3933 406.153 82.8933 404.967 82.84 403.38H86.16C86.1733 403.967 86.34 404.433 86.66 404.78C86.98 405.113 87.4467 405.28 88.06 405.28C88.58 405.28 88.98 405.133 89.26 404.84C89.5533 404.533 89.7 404.133 89.7 403.64C89.7 403 89.4933 402.54 89.08 402.26C88.68 401.967 88.0333 401.82 87.14 401.82H86.5V399.04H87.14C87.82 399.04 88.3667 398.927 88.78 398.7C89.2067 398.46 89.42 398.04 89.42 397.44C89.42 396.96 89.2867 396.587 89.02 396.32C88.7533 396.053 88.3867 395.92 87.92 395.92C87.4133 395.92 87.0333 396.073 86.78 396.38C86.54 396.687 86.4 397.067 86.36 397.52H83.02ZM104.289 396.38H98.0494V399.14C98.316 398.847 98.6894 398.607 99.1694 398.42C99.6494 398.233 100.169 398.14 100.729 398.14C101.729 398.14 102.556 398.367 103.209 398.82C103.876 399.273 104.363 399.86 104.669 400.58C104.976 401.3 105.129 402.08 105.129 402.92C105.129 404.48 104.689 405.72 103.809 406.64C102.929 407.547 101.689 408 100.089 408C99.0227 408 98.096 407.82 97.3094 407.46C96.5227 407.087 95.916 406.573 95.4894 405.92C95.0627 405.267 94.8294 404.513 94.7894 403.66H98.1294C98.2094 404.073 98.4027 404.42 98.7094 404.7C99.016 404.967 99.436 405.1 99.9694 405.1C100.596 405.1 101.063 404.9 101.369 404.5C101.676 404.1 101.829 403.567 101.829 402.9C101.829 402.247 101.669 401.747 101.349 401.4C101.029 401.053 100.563 400.88 99.9494 400.88C99.496 400.88 99.1227 400.993 98.8294 401.22C98.536 401.433 98.3427 401.72 98.2494 402.08H94.9494V393.38H104.289V396.38ZM106.017 400.5C106.017 398.207 106.457 396.4 107.337 395.08C108.231 393.76 109.664 393.1 111.637 393.1C113.611 393.1 115.037 393.76 115.917 395.08C116.811 396.4 117.257 398.207 117.257 400.5C117.257 402.82 116.811 404.64 115.917 405.96C115.037 407.28 113.611 407.94 111.637 407.94C109.664 407.94 108.231 407.28 107.337 405.96C106.457 404.64 106.017 402.82 106.017 400.5ZM113.897 400.5C113.897 399.153 113.751 398.12 113.457 397.4C113.164 396.667 112.557 396.3 111.637 396.3C110.717 396.3 110.111 396.667 109.817 397.4C109.524 398.12 109.377 399.153 109.377 400.5C109.377 401.407 109.431 402.16 109.537 402.76C109.644 403.347 109.857 403.827 110.177 404.2C110.511 404.56 110.997 404.74 111.637 404.74C112.277 404.74 112.757 404.56 113.077 404.2C113.411 403.827 113.631 403.347 113.737 402.76C113.844 402.16 113.897 401.407 113.897 400.5ZM118.064 400.5C118.064 398.207 118.504 396.4 119.384 395.08C120.277 393.76 121.711 393.1 123.684 393.1C125.657 393.1 127.084 393.76 127.964 395.08C128.857 396.4 129.304 398.207 129.304 400.5C129.304 402.82 128.857 404.64 127.964 405.96C127.084 407.28 125.657 407.94 123.684 407.94C121.711 407.94 120.277 407.28 119.384 405.96C118.504 404.64 118.064 402.82 118.064 400.5ZM125.944 400.5C125.944 399.153 125.797 398.12 125.504 397.4C125.211 396.667 124.604 396.3 123.684 396.3C122.764 396.3 122.157 396.667 121.864 397.4C121.571 398.12 121.424 399.153 121.424 400.5C121.424 401.407 121.477 402.16 121.584 402.76C121.691 403.347 121.904 403.827 122.224 404.2C122.557 404.56 123.044 404.74 123.684 404.74C124.324 404.74 124.804 404.56 125.124 404.2C125.457 403.827 125.677 403.347 125.784 402.76C125.891 402.16 125.944 401.407 125.944 400.5ZM135.531 408.14C134.504 408.14 133.584 407.973 132.771 407.64C131.958 407.307 131.304 406.813 130.811 406.16C130.331 405.507 130.078 404.72 130.051 403.8H133.691C133.744 404.32 133.924 404.72 134.231 405C134.538 405.267 134.938 405.4 135.431 405.4C135.938 405.4 136.338 405.287 136.631 405.06C136.924 404.82 137.071 404.493 137.071 404.08C137.071 403.733 136.951 403.447 136.711 403.22C136.484 402.993 136.198 402.807 135.851 402.66C135.518 402.513 135.038 402.347 134.411 402.16C133.504 401.88 132.764 401.6 132.191 401.32C131.618 401.04 131.124 400.627 130.711 400.08C130.298 399.533 130.091 398.82 130.091 397.94C130.091 396.633 130.564 395.613 131.511 394.88C132.458 394.133 133.691 393.76 135.211 393.76C136.758 393.76 138.004 394.133 138.951 394.88C139.898 395.613 140.404 396.64 140.471 397.96H136.771C136.744 397.507 136.578 397.153 136.271 396.9C135.964 396.633 135.571 396.5 135.091 396.5C134.678 396.5 134.344 396.613 134.091 396.84C133.838 397.053 133.711 397.367 133.711 397.78C133.711 398.233 133.924 398.587 134.351 398.84C134.778 399.093 135.444 399.367 136.351 399.66C137.258 399.967 137.991 400.26 138.551 400.54C139.124 400.82 139.618 401.227 140.031 401.76C140.444 402.293 140.651 402.98 140.651 403.82C140.651 404.62 140.444 405.347 140.031 406C139.631 406.653 139.044 407.173 138.271 407.56C137.498 407.947 136.584 408.14 135.531 408.14Z" fill="#6427FF"/>
<rect x="25" y="441" width="52" height="52" rx="26" fill="#EAE8FE"/>
<path d="M36.55 478L46.75 467.814L53.55 474.593L68 458.39L65.603 456L53.55 469.508L46.75 462.729L34 475.458L36.55 478Z" fill="#6427FF"/>
<rect x="13" y="511" width="348" height="63" rx="20" fill="#F9F9FC"/>
<path d="M86.24 526.015V528.1H87.47V526.015H86.24ZM80.735 525.325V526.33H92.99V525.325H80.735ZM82.325 520.06V524.185H91.4V520.06H82.325ZM90.185 521.05V523.195H83.555V521.05H90.185ZM82.22 527.65V528.61H90.2V529.795H82.25V532.345H83.48V530.695H91.43V527.65H82.22ZM82.25 532.045V533.02H91.835V532.045H82.25ZM103.669 519.595V533.185H104.914V519.595H103.669ZM94.5788 528.88V529.915H95.7038C98.0288 529.915 100.069 529.825 102.529 529.42L102.394 528.4C99.9938 528.79 97.9688 528.88 95.7038 528.88H94.5788ZM94.5488 520.87V521.89H99.5588V524.695H94.5788V529.27H95.8238V525.715H100.819V520.87H94.5488ZM111.243 520.585C109.128 520.585 107.598 521.89 107.598 523.78C107.598 525.685 109.128 526.99 111.243 526.99C113.358 526.99 114.873 525.685 114.873 523.78C114.873 521.89 113.358 520.585 111.243 520.585ZM111.243 521.665C112.638 521.665 113.658 522.52 113.658 523.78C113.658 525.04 112.638 525.91 111.243 525.91C109.833 525.91 108.813 525.04 108.813 523.78C108.813 522.52 109.833 521.665 111.243 521.665ZM116.643 519.595V533.185H117.888V519.595H116.643ZM107.088 530.215C109.503 530.215 112.818 530.2 115.863 529.615L115.758 528.7C112.803 529.165 109.383 529.18 106.908 529.18L107.088 530.215ZM133.016 519.61V533.17H134.261V519.61H133.016ZM129.041 521.065V521.275C129.041 524.875 127.226 527.755 123.311 529.645L123.971 530.65C128.501 528.43 130.271 524.995 130.271 521.065H129.041ZM123.926 521.065V522.085H129.581V521.065H123.926ZM137.814 520.15V525.565H146.844V520.15H145.599V521.845H139.044V520.15H137.814ZM139.044 522.835H145.599V524.56H139.044V522.835ZM136.179 527.005V528.025H148.434V527.005H136.179ZM141.699 524.98V527.455H142.929V524.98H141.699ZM137.769 531.85V532.87H147.084V531.85H137.769ZM137.769 529.12V532.195H139.014V529.12H137.769ZM149.258 530.905C150.528 529.885 151.523 529.05 152.243 528.4C152.963 527.74 153.568 527.055 154.058 526.345C154.558 525.625 154.808 524.92 154.808 524.23C154.808 523.58 154.648 523.07 154.328 522.7C154.018 522.32 153.513 522.13 152.813 522.13C152.133 522.13 151.603 522.345 151.223 522.775C150.853 523.195 150.653 523.76 150.623 524.47H149.303C149.343 523.35 149.683 522.485 150.323 521.875C150.963 521.265 151.788 520.96 152.798 520.96C153.828 520.96 154.643 521.245 155.243 521.815C155.853 522.385 156.158 523.17 156.158 524.17C156.158 525 155.908 525.81 155.408 526.6C154.918 527.38 154.358 528.07 153.728 528.67C153.098 529.26 152.293 529.95 151.313 530.74H156.473V531.88H149.258V530.905Z" fill="black"/>
<path d="M80.54 548.58V545.4H86.08V560H82.52V548.58H80.54ZM97.6995 548.38H91.4595V551.14C91.7262 550.847 92.0995 550.607 92.5795 550.42C93.0595 550.233 93.5795 550.14 94.1395 550.14C95.1395 550.14 95.9662 550.367 96.6195 550.82C97.2862 551.273 97.7729 551.86 98.0795 552.58C98.3862 553.3 98.5395 554.08 98.5395 554.92C98.5395 556.48 98.0995 557.72 97.2195 558.64C96.3395 559.547 95.0995 560 93.4995 560C92.4329 560 91.5062 559.82 90.7195 559.46C89.9329 559.087 89.3262 558.573 88.8995 557.92C88.4729 557.267 88.2395 556.513 88.1995 555.66H91.5395C91.6195 556.073 91.8129 556.42 92.1195 556.7C92.4262 556.967 92.8462 557.1 93.3795 557.1C94.0062 557.1 94.4729 556.9 94.7795 556.5C95.0862 556.1 95.2395 555.567 95.2395 554.9C95.2395 554.247 95.0795 553.747 94.7595 553.4C94.4395 553.053 93.9729 552.88 93.3595 552.88C92.9062 552.88 92.5329 552.993 92.2395 553.22C91.9462 553.433 91.7529 553.72 91.6595 554.08H88.3595V545.38H97.6995V548.38ZM99.4273 552.5C99.4273 550.207 99.8673 548.4 100.747 547.08C101.641 545.76 103.074 545.1 105.047 545.1C107.021 545.1 108.447 545.76 109.327 547.08C110.221 548.4 110.667 550.207 110.667 552.5C110.667 554.82 110.221 556.64 109.327 557.96C108.447 559.28 107.021 559.94 105.047 559.94C103.074 559.94 101.641 559.28 100.747 557.96C99.8673 556.64 99.4273 554.82 99.4273 552.5ZM107.307 552.5C107.307 551.153 107.161 550.12 106.867 549.4C106.574 548.667 105.967 548.3 105.047 548.3C104.127 548.3 103.521 548.667 103.227 549.4C102.934 550.12 102.787 551.153 102.787 552.5C102.787 553.407 102.841 554.16 102.947 554.76C103.054 555.347 103.267 555.827 103.587 556.2C103.921 556.56 104.407 556.74 105.047 556.74C105.687 556.74 106.167 556.56 106.487 556.2C106.821 555.827 107.041 555.347 107.147 554.76C107.254 554.16 107.307 553.407 107.307 552.5ZM111.474 552.5C111.474 550.207 111.914 548.4 112.794 547.08C113.688 545.76 115.121 545.1 117.094 545.1C119.068 545.1 120.494 545.76 121.374 547.08C122.268 548.4 122.714 550.207 122.714 552.5C122.714 554.82 122.268 556.64 121.374 557.96C120.494 559.28 119.068 559.94 117.094 559.94C115.121 559.94 113.688 559.28 112.794 557.96C111.914 556.64 111.474 554.82 111.474 552.5ZM119.354 552.5C119.354 551.153 119.208 550.12 118.914 549.4C118.621 548.667 118.014 548.3 117.094 548.3C116.174 548.3 115.568 548.667 115.274 549.4C114.981 550.12 114.834 551.153 114.834 552.5C114.834 553.407 114.888 554.16 114.994 554.76C115.101 555.347 115.314 555.827 115.634 556.2C115.968 556.56 116.454 556.74 117.094 556.74C117.734 556.74 118.214 556.56 118.534 556.2C118.868 555.827 119.088 555.347 119.194 554.76C119.301 554.16 119.354 553.407 119.354 552.5ZM128.941 560.14C127.914 560.14 126.994 559.973 126.181 559.64C125.368 559.307 124.714 558.813 124.221 558.16C123.741 557.507 123.488 556.72 123.461 555.8H127.101C127.154 556.32 127.334 556.72 127.641 557C127.948 557.267 128.348 557.4 128.841 557.4C129.348 557.4 129.748 557.287 130.041 557.06C130.334 556.82 130.481 556.493 130.481 556.08C130.481 555.733 130.361 555.447 130.121 555.22C129.894 554.993 129.608 554.807 129.261 554.66C128.928 554.513 128.448 554.347 127.821 554.16C126.914 553.88 126.174 553.6 125.601 553.32C125.028 553.04 124.534 552.627 124.121 552.08C123.708 551.533 123.501 550.82 123.501 549.94C123.501 548.633 123.974 547.613 124.921 546.88C125.868 546.133 127.101 545.76 128.621 545.76C130.168 545.76 131.414 546.133 132.361 546.88C133.308 547.613 133.814 548.64 133.881 549.96H130.181C130.154 549.507 129.988 549.153 129.681 548.9C129.374 548.633 128.981 548.5 128.501 548.5C128.088 548.5 127.754 548.613 127.501 548.84C127.248 549.053 127.121 549.367 127.121 549.78C127.121 550.233 127.334 550.587 127.761 550.84C128.188 551.093 128.854 551.367 129.761 551.66C130.668 551.967 131.401 552.26 131.961 552.54C132.534 552.82 133.028 553.227 133.441 553.76C133.854 554.293 134.061 554.98 134.061 555.82C134.061 556.62 133.854 557.347 133.441 558C133.041 558.653 132.454 559.173 131.681 559.56C130.908 559.947 129.994 560.14 128.941 560.14Z" fill="#6427FF"/>
<rect x="25" y="517" width="52" height="52" rx="26" fill="#EAE8FE"/>
<path d="M59.9891 542.5C60.6904 541.892 61.328 541.285 61.8899 540.688C64.8096 537.584 64.7374 535.746 64.1627 534.75C63.5878 533.754 62.0317 532.773 57.8838 533.749C57.0857 533.937 56.2411 534.186 55.3642 534.489C55.1885 533.578 54.9818 532.722 54.7454 531.937C53.517 527.857 51.8887 527 50.7393 527C49.5899 527 47.9617 527.857 46.7333 531.937C46.4969 532.723 46.2901 533.578 46.1144 534.489C45.2375 534.186 44.393 533.937 43.5948 533.749C39.4467 532.773 37.8907 533.755 37.3158 534.75C36.7411 535.746 36.6689 537.584 39.5886 540.688C40.1504 541.285 40.7881 541.892 41.4894 542.5C40.7881 543.108 40.1504 543.715 39.5886 544.312C36.6688 547.416 36.7411 549.255 37.3158 550.25C37.7231 550.955 38.6224 551.654 40.5877 551.654C41.3963 551.654 42.3855 551.535 43.5947 551.251C44.3928 551.063 45.2374 550.814 46.1143 550.511C46.29 551.422 46.4968 552.278 46.7332 553.063C47.9617 557.143 49.5898 558 50.7393 558C51.8887 558 53.5168 557.143 54.7453 553.063C54.9816 552.277 55.1885 551.422 55.3641 550.511C56.241 550.814 57.0856 551.063 57.8837 551.251C59.0931 551.535 60.0821 551.654 60.8907 551.654C62.8556 551.654 63.7554 550.955 64.1625 550.25C64.7373 549.254 64.8096 547.416 61.8897 544.312C61.328 543.715 60.6904 543.108 59.9891 542.5ZM43.1599 549.403C40.276 550.082 39.1514 549.633 38.9596 549.301C38.7679 548.969 38.9414 547.77 40.9713 545.612C41.5562 544.99 42.2316 544.356 42.9814 543.72C43.7692 544.329 44.6136 544.934 45.5029 545.523C45.569 546.588 45.67 547.622 45.804 548.609C44.8783 548.94 43.991 549.208 43.1599 549.403ZM45.4146 543.162C45.1054 542.942 44.8032 542.722 44.5093 542.5C44.8032 542.278 45.1054 542.058 45.4146 541.838C45.4117 542.058 45.41 542.279 45.41 542.5C45.41 542.721 45.4117 542.942 45.4146 543.162ZM45.5029 539.477C44.6136 540.066 43.7692 540.671 42.9814 541.28C42.2316 540.644 41.5562 540.01 40.9712 539.388C38.9414 537.23 38.7677 536.031 38.9596 535.699C39.0782 535.493 39.5541 535.243 40.5834 535.243C41.2172 535.243 42.0608 535.338 43.1598 535.597C43.9909 535.792 44.8782 536.06 45.8039 536.391C45.67 537.378 45.569 538.412 45.5029 539.477ZM53.9751 538.22C53.786 538.107 53.5958 537.995 53.404 537.885C53.2122 537.774 53.0202 537.665 52.8282 537.558C53.1731 537.4 53.5154 537.248 53.8543 537.105C53.8993 537.47 53.9395 537.842 53.9751 538.22ZM48.5507 532.484C49.4047 529.648 50.3557 528.898 50.7393 528.898C51.1228 528.898 52.0739 529.648 52.9279 532.484C53.174 533.302 53.386 534.204 53.5618 535.172C52.6401 535.549 51.6946 535.978 50.7393 536.453C49.7839 535.978 48.8384 535.549 47.9167 535.172C48.0926 534.204 48.3046 533.302 48.5507 532.484ZM47.6243 537.105C47.9632 537.248 48.3055 537.4 48.6503 537.558C48.4584 537.665 48.2665 537.774 48.0746 537.885C47.8828 537.995 47.6926 538.107 47.5036 538.22C47.5392 537.842 47.5793 537.47 47.6243 537.105ZM47.5036 546.78C47.6926 546.893 47.8828 547.005 48.0746 547.115C48.2664 547.226 48.4583 547.335 48.6503 547.442C48.3054 547.6 47.9632 547.752 47.6243 547.895C47.5793 547.53 47.5392 547.158 47.5036 546.78ZM52.928 552.516C52.0739 555.352 51.1229 556.102 50.7393 556.102C50.3557 556.102 49.4047 555.352 48.5507 552.516C48.3046 551.698 48.0926 550.796 47.9168 549.828C48.8385 549.451 49.784 549.022 50.7393 548.547C51.6947 549.022 52.6402 549.451 53.5619 549.828C53.3861 550.796 53.1741 551.698 52.928 552.516ZM53.8543 547.895C53.5154 547.752 53.1731 547.6 52.8282 547.442C53.0202 547.335 53.212 547.226 53.4039 547.115C53.5957 547.005 53.786 546.893 53.9751 546.78C53.9395 547.158 53.8993 547.53 53.8543 547.895ZM54.1305 544.458C53.5868 544.802 53.0275 545.141 52.4549 545.472C51.8823 545.802 51.3094 546.117 50.7393 546.416C50.1691 546.117 49.5962 545.802 49.0235 545.472C48.451 545.141 47.8918 544.802 47.348 544.458C47.3216 543.815 47.3079 543.161 47.3079 542.5C47.3079 541.839 47.3216 541.185 47.348 540.542C47.8918 540.198 48.451 539.859 49.0235 539.528C49.5961 539.198 50.169 538.883 50.7393 538.584C51.3094 538.883 51.8823 539.198 52.4549 539.528C53.0275 539.859 53.5867 540.198 54.1305 540.542C54.1569 541.185 54.1706 541.839 54.1706 542.5C54.1706 543.161 54.1569 543.815 54.1305 544.458ZM58.3187 535.597C59.4179 535.338 60.2615 535.243 60.8953 535.243C61.9243 535.243 62.4004 535.493 62.5191 535.699C62.7108 536.031 62.5372 537.23 60.5074 539.388C59.9225 540.01 59.2471 540.644 58.4972 541.28C57.7095 540.671 56.8651 540.067 55.9759 539.477C55.9097 538.412 55.8087 537.378 55.6747 536.391C56.6003 536.06 57.4877 535.792 58.3187 535.597ZM56.064 541.838C56.3732 542.058 56.6754 542.278 56.9693 542.5C56.6754 542.722 56.3733 542.942 56.064 543.162C56.0669 542.942 56.0686 542.721 56.0686 542.5C56.0686 542.279 56.0669 542.058 56.064 541.838ZM62.519 549.301C62.3273 549.633 61.2023 550.082 58.3187 549.403C57.4876 549.208 56.6002 548.94 55.6747 548.609C55.8087 547.622 55.9097 546.588 55.9759 545.523C56.8651 544.934 57.7096 544.329 58.4972 543.72C59.2471 544.356 59.9224 544.99 60.5074 545.612C62.5372 547.77 62.7108 548.969 62.519 549.301Z" fill="#6427FF"/>
<path d="M51.8735 541.829L50.715 541.164L49.5599 541.835L49.5632 543.171L50.7217 543.836L51.8769 543.165L51.8735 541.829Z" fill="#6427FF"/>
<rect x="13" y="587" width="348" height="63" rx="20" fill="#F9F9FC"/>
<path d="M90.02 595.61V602.51H91.265V595.61H90.02ZM90.725 598.52V599.555H93.26V598.52H90.725ZM82.655 603.155V604.145H90.05V605.54H82.685V608.51H83.915V606.485H91.265V603.155H82.655ZM82.685 607.985V608.99H91.76V607.985H82.685ZM84.485 596.09C82.475 596.09 80.99 597.335 80.99 599.105C80.99 600.89 82.475 602.135 84.485 602.135C86.525 602.135 87.995 600.89 87.995 599.105C87.995 597.335 86.525 596.09 84.485 596.09ZM84.485 597.11C85.82 597.11 86.795 597.935 86.795 599.105C86.795 600.29 85.82 601.115 84.485 601.115C83.18 601.115 82.205 600.29 82.205 599.105C82.205 597.935 83.18 597.11 84.485 597.11ZM95.0888 596.96V597.995H103.819V596.96H95.0888ZM93.7988 606.245V607.28H106.054V606.245H93.7988ZM98.5538 601.4V606.755H99.7988V601.4H98.5538ZM103.354 596.96V598.31C103.354 599.93 103.354 601.835 102.844 604.43L104.089 604.595C104.584 601.85 104.584 599.99 104.584 598.31V596.96H103.354ZM116.718 595.595V609.185H117.963V595.595H116.718ZM107.628 604.88V605.915H108.753C111.078 605.915 113.118 605.825 115.578 605.42L115.443 604.4C113.043 604.79 111.018 604.88 108.753 604.88H107.628ZM107.598 596.87V597.89H112.608V600.695H107.628V605.27H108.873V601.715H113.868V596.87H107.598ZM125.206 596.75V597.155C125.206 598.685 123.001 599.9 120.571 600.17L121.021 601.16C123.826 600.815 126.316 599.33 126.316 597.155V596.75H125.206ZM125.731 596.75V597.155C125.731 599.33 128.206 600.815 131.011 601.16L131.461 600.17C129.031 599.9 126.826 598.685 126.826 597.155V596.75H125.731ZM121.006 596.195V597.2H131.041V596.195H121.006ZM121.381 604.415V608.99H130.636V604.415H121.381ZM129.421 605.42V607.985H122.611V605.42H129.421ZM119.881 601.955V602.975H132.136V601.955H119.881Z" fill="black"/>
<path d="M90.22 623.96L85.2 636H81.7L86.78 624.34H80.56V621.42H90.22V623.96ZM100.883 624.38H94.6431V627.14C94.9098 626.847 95.2831 626.607 95.7631 626.42C96.2431 626.233 96.7631 626.14 97.3231 626.14C98.3231 626.14 99.1498 626.367 99.8031 626.82C100.47 627.273 100.956 627.86 101.263 628.58C101.57 629.3 101.723 630.08 101.723 630.92C101.723 632.48 101.283 633.72 100.403 634.64C99.5231 635.547 98.2831 636 96.6831 636C95.6165 636 94.6898 635.82 93.9031 635.46C93.1165 635.087 92.5098 634.573 92.0831 633.92C91.6565 633.267 91.4231 632.513 91.3831 631.66H94.7231C94.8031 632.073 94.9965 632.42 95.3031 632.7C95.6098 632.967 96.0298 633.1 96.5631 633.1C97.1898 633.1 97.6565 632.9 97.9631 632.5C98.2698 632.1 98.4231 631.567 98.4231 630.9C98.4231 630.247 98.2631 629.747 97.9431 629.4C97.6231 629.053 97.1565 628.88 96.5431 628.88C96.0898 628.88 95.7165 628.993 95.4231 629.22C95.1298 629.433 94.9365 629.72 94.8431 630.08H91.5431V621.38H100.883V624.38ZM102.611 628.5C102.611 626.207 103.051 624.4 103.931 623.08C104.824 621.76 106.258 621.1 108.231 621.1C110.204 621.1 111.631 621.76 112.511 623.08C113.404 624.4 113.851 626.207 113.851 628.5C113.851 630.82 113.404 632.64 112.511 633.96C111.631 635.28 110.204 635.94 108.231 635.94C106.258 635.94 104.824 635.28 103.931 633.96C103.051 632.64 102.611 630.82 102.611 628.5ZM110.491 628.5C110.491 627.153 110.344 626.12 110.051 625.4C109.758 624.667 109.151 624.3 108.231 624.3C107.311 624.3 106.704 624.667 106.411 625.4C106.118 626.12 105.971 627.153 105.971 628.5C105.971 629.407 106.024 630.16 106.131 630.76C106.238 631.347 106.451 631.827 106.771 632.2C107.104 632.56 107.591 632.74 108.231 632.74C108.871 632.74 109.351 632.56 109.671 632.2C110.004 631.827 110.224 631.347 110.331 630.76C110.438 630.16 110.491 629.407 110.491 628.5ZM114.658 628.5C114.658 626.207 115.098 624.4 115.978 623.08C116.871 621.76 118.304 621.1 120.278 621.1C122.251 621.1 123.678 621.76 124.558 623.08C125.451 624.4 125.898 626.207 125.898 628.5C125.898 630.82 125.451 632.64 124.558 633.96C123.678 635.28 122.251 635.94 120.278 635.94C118.304 635.94 116.871 635.28 115.978 633.96C115.098 632.64 114.658 630.82 114.658 628.5ZM122.538 628.5C122.538 627.153 122.391 626.12 122.098 625.4C121.804 624.667 121.198 624.3 120.278 624.3C119.358 624.3 118.751 624.667 118.458 625.4C118.164 626.12 118.018 627.153 118.018 628.5C118.018 629.407 118.071 630.16 118.178 630.76C118.284 631.347 118.498 631.827 118.818 632.2C119.151 632.56 119.638 632.74 120.278 632.74C120.918 632.74 121.398 632.56 121.718 632.2C122.051 631.827 122.271 631.347 122.378 630.76C122.484 630.16 122.538 629.407 122.538 628.5ZM132.125 636.14C131.098 636.14 130.178 635.973 129.365 635.64C128.551 635.307 127.898 634.813 127.405 634.16C126.925 633.507 126.671 632.72 126.645 631.8H130.285C130.338 632.32 130.518 632.72 130.825 633C131.131 633.267 131.531 633.4 132.025 633.4C132.531 633.4 132.931 633.287 133.225 633.06C133.518 632.82 133.665 632.493 133.665 632.08C133.665 631.733 133.545 631.447 133.305 631.22C133.078 630.993 132.791 630.807 132.445 630.66C132.111 630.513 131.631 630.347 131.005 630.16C130.098 629.88 129.358 629.6 128.785 629.32C128.211 629.04 127.718 628.627 127.305 628.08C126.891 627.533 126.685 626.82 126.685 625.94C126.685 624.633 127.158 623.613 128.105 622.88C129.051 622.133 130.285 621.76 131.805 621.76C133.351 621.76 134.598 622.133 135.545 622.88C136.491 623.613 136.998 624.64 137.065 625.96H133.365C133.338 625.507 133.171 625.153 132.865 624.9C132.558 624.633 132.165 624.5 131.685 624.5C131.271 624.5 130.938 624.613 130.685 624.84C130.431 625.053 130.305 625.367 130.305 625.78C130.305 626.233 130.518 626.587 130.945 626.84C131.371 627.093 132.038 627.367 132.945 627.66C133.851 627.967 134.585 628.26 135.145 628.54C135.718 628.82 136.211 629.227 136.625 629.76C137.038 630.293 137.245 630.98 137.245 631.82C137.245 632.62 137.038 633.347 136.625 634C136.225 634.653 135.638 635.173 134.865 635.56C134.091 635.947 133.178 636.14 132.125 636.14Z" fill="#6427FF"/>
<rect x="25" y="593" width="52" height="52" rx="26" fill="#EAE8FE"/>
<path d="M63 607H39C37.335 607 36 608.294 36 609.875V627.125C36 628.706 37.335 630 39 630H63C64.65 630 66 628.706 66 627.125V609.875C66 608.294 64.665 607 63 607ZM63 627.125H39V612.75H63V627.125ZM60 625.688H51V622.812H60V625.688ZM44.25 625.688L42.135 623.661L46.005 619.938L42.12 616.214L44.25 614.188L50.25 619.938L44.25 625.688Z" fill="#6427FF"/>
</g>
<defs>
<clipPath id="clip0_32_45">
<rect width="375" height="812" fill="white"/>
</clipPath>
<clipPath id="clip1_32_45">
<rect width="20" height="20" fill="white" transform="translate(42 119)"/>
</clipPath>
</defs>
</svg>
